/* XPM */
static char *_5a7a68a1cb34d0fe75ebd9892d8b542[] = {
/* columns rows colors chars-per-pixel */
"64 64 200 2 ",
"   c #68544C",
".  c #4A657B",
"X  c #4C677C",
"o  c #4D677C",
"O  c #4D687C",
"+  c #4D687D",
"@  c #4D687E",
"#  c #4E697E",
"$  c #4E6A7F",
"%  c #B85D39",
"&  c #B95E3A",
"*  c #D47B57",
"=  c #DD835E",
"-  c #E0825C",
";  c #E1825C",
":  c #1C74BB",
">  c #1C75BB",
",  c #1C75BC",
"<  c #4F6A80",
"1  c #4F6B80",
"2  c #4F6B81",
"3  c #516D83",
"4  c #516D84",
"5  c #516E84",
"6  c #526F86",
"7  c #536F86",
"8  c #537086",
"9  c #537087",
"0  c #547188",
"q  c #547289",
"w  c #55738A",
"e  c #55738B",
"r  c #56748B",
"t  c #56748C",
"y  c #57758D",
"u  c #57768E",
"i  c #57768F",
"p  c #5F778A",
"a  c #58768E",
"s  c #58768F",
"d  c #597790",
"f  c #597891",
"g  c #5B7992",
"h  c #5B7B95",
"j  c #5C7B95",
"k  c #5C7D97",
"l  c #5C7D98",
"z  c #5E7E99",
"x  c #5E7F99",
"c  c #5F7F9A",
"v  c #627C91",
"b  c #657F93",
"n  c #5F809B",
"m  c #60819C",
"M  c #61839E",
"N  c #61839F",
"B  c #7D8D9D",
"V  c #6284A0",
"C  c #6385A1",
"Z  c #6486A3",
"A  c #6689A6",
"S  c #6F8DA5",
"D  c #6E8DA7",
"F  c #668AA8",
"G  c #678BA8",
"H  c #688CA9",
"J  c #688CAA",
"K  c #698CAA",
"L  c #698DAA",
"P  c #688CAB",
"I  c #688DAB",
"U  c #698DAB",
"Y  c #6A8DAA",
"T  c #698DAC",
"R  c #698EAC",
"E  c #6B8EAC",
"W  c #6E8FAC",
"Q  c #718DA5",
"!  c #6D90AC",
"~  c #7690A6",
"^  c #7794AC",
"/  c #7A97AF",
"(  c #8F949C",
")  c #929394",
"_  c #91969D",
"`  c #96989C",
"'  c #BFA49A",
"]  c #8592A0",
"[  c #8294A2",
"{  c #909AA4",
"}  c #9B9EA2",
"|  c #9C9DA0",
" . c #9D9FA3",
".. c #9E9FA2",
"X. c #9E9FA3",
"o. c #819BB1",
"O. c #9FA1A4",
"+. c #85A1B7",
"@. c #86A0B6",
"#. c #8DA1B3",
"$. c #8FA3B3",
"%. c #95A6B5",
"&. c #A0A0A3",
"*. c #A0A1A4",
"=. c #A2A3A5",
"-. c #A3A4A6",
";. c #A4A5A7",
":. c #A5A6A8",
">. c #A6A7A9",
",. c #A7A8AA",
"<. c #A8A9AB",
"1. c #AAABAD",
"2. c #ABABAD",
"3. c #ACACAE",
"4. c #ACADAF",
"5. c #AFAFAF",
"6. c #A5AAB0",
"7. c #A0ACB7",
"8. c #ADAEB0",
"9. c #AEAFB1",
"0. c #AFB0B2",
"q. c #A8B1B9",
"w. c #ADB3B9",
"e. c #B1B1B1",
"r. c #B0B1B3",
"t. c #B2B3B5",
"y. c #B5B5B6",
"u. c #B4B5B7",
"i. c #B5B5B7",
"p. c #B5B6B7",
"a. c #B7B7B7",
"s. c #B2B6BA",
"d. c #B6B7B9",
"f. c #B5B8BC",
"g. c #B8B9BB",
"h. c #BABABB",
"j. c #B9BABC",
"k. c #B8BABD",
"l. c #B9BABD",
"z. c #BABBBD",
"x. c #BBBBBD",
"c. c #BBBCBD",
"v. c #BBBCBE",
"b. c #BCBCBE",
"n. c #94ADC1",
"m. c #98AFC2",
"M. c #AFB9C1",
"N. c #B2BBC2",
"B. c #BDBEC0",
"V. c #BFC0C2",
"C. c #BCC1C6",
"Z. c #C0C0C2",
"A. c #C1C2C3",
"S. c #C2C3C5",
"D. c #C4C5C6",
"F. c #C7CBCF",
"G. c #C8C8CA",
"H. c #CACACA",
"J. c #CACBCC",
"K. c #CBCBCD",
"L. c gray80",
"P. c #CDCDCF",
"I. c #CDCECF",
"U. c #CFD0D1",
"Y. c #D3D3D4",
"T. c gray83",
"R. c #D4D4D5",
"E. c #D5D5D5",
"W. c gray84",
"Q. c #D3D6D9",
"!. c #D7D8D9",
"~. c #D8D8D9",
"^. c #D9DADB",
"/. c #DADADB",
"(. c #DBDBDD",
"). c #DDDDDD",
"_. c #E0E0E1",
"`. c #E2E2E3",
"'. c gray89",
"]. c #E3E5E6",
"[. c gray90",
"{. c #E5E5E6",
"}. c #E6E6E6",
"|. c #E7E7E7",
" X c #E4E8EC",
".X c #E7EBED",
"XX c #E8E8E9",
"oX c #E9E9EA",
"OX c #EAEAEA",
"+X c #EAEBEB",
"@X c gray92",
"#X c #ECEBEB",
"$X c #EDECEC",
"%X c #ECECED",
"&X c #EFEFEF",
"*X c #F0F0F1",
"=X c #F4F4F4",
"-X c #F5F4F4",
";X c gray96",
":X c None",
/* pixels */
":X:X:X:X:X:X:X:X:X:X:X:X:X:X:X:X:X:X:X:X:X:X:X:X:X:X, , , , , , , , , , , , :X:X:X:X:X:X:X:X:X:X:X:X:X:X:X:X:X:X:X:X:X:X:X:X:X:X",
":X:X:X:X:X:X:X:X:X:X:X:X:X:X:X:X:X:X:X:X:X:X, , , , :X:X:X:X:X:X:X:X:X:X:X:X, , , , :X:X:X:X:X:X:X:X:X:X:X:X:X:X:X:X:X:X:X:X:X:X",
":X:X:X:X:X:X:X:X:X:X:X:X:X:X:X:X:X:X:X:X, , :X:X:X:X:X:X:X:X:X:X:X:X:X:X:X:X:X:X:X:X, , :X:X:X:X:X:X:X:X:X:X:X:X:X:X:X:X:X:X:X:X",
":X:X:X:X:X:X:X:X:X:X:X:X:X:X:X:X:X, , :X:X:X:X:X:X:X:X:X:X:X:X:X:X:X:X:X:X:X:X:X:X:X:X:X:X, , :X:X:X:X:X:X:X:X:X:X:X:X:X:X:X:X:X",
":X:X:X:X:X:X:X:X:X:X:X:X:X:X:X:X, :X:X:X:X:X:X:X:X:X:X:X:X:X:X:X:X:X:X:X:X:X:X:X:X:X:X:X:X:X:X, :X:X:X:X:X:X:X:X:X:X:X:X:X:X:X:X",
":X:X:X:X:X:X:X:X:X:X:X:X:X:X, , :X:X:X:X:X:X:X:X:X:X:X:X:X:X:X:X:X:X:X:X:X:X:X:X:X:X:X:X:X:X:X:X, , :X:X:X:X:X:X:X:X:X:X:X:X:X:X",
":X:X:X:X:X:X:X:X:X:X:X:X:X, :X:X:X:X:X:X:X:X:X:X:X:X:X:X:X:X:X:X:X:X:X:X:X:X:X:X:X:X:X:X:X:X:X:X:X:X, :X:X:X:X:X:X:X:X:X:X:X:X:X",
":X:X:X:X:X:X:X:X:X:X:X, , :X:X:X:X:X:X:X:X+ :X:X:X:X:X:X:X:X:X:X:X:X:X:X:X:X:X:X:X:X:X:X:X:X:X:X:X:X:X, , :X:X:X:X:X:X:X:X:X:X:X",
":X:X:X:X:X:X:X:X:X:X, , :X:X:X:X:X:X:X:X:X+ + :X:X:X:X:X:X:X:X:X:X:X:X:X:X:X:X:X:X:X:X:X:X:X:X:X:X:X:X:X, , :X:X:X:X:X:X:X:X:X:X",
":X:X:X:X:X:X:X:X:X, :X:X:X:X:X:X:X:X:X:X+ + + :X:X:X:X:X:X:X:X:X:X:X:X:X:X:X:X:X:X:X:X:X:X:X:X:X:X:X:X:X:X:X, :X:X:X:X:X:X:X:X:X",
":X:X:X:X:X:X:X:X, :X:X:X:X:X:X:X:X:X:X+ + + + + :X:X:X:X:X:X:X:X:X:X:X:X:X:X:X:X:X:X:X:X:X:X:X:X:X:X:X:X:X:X:X, :X:X:X:X:X:X:X:X",
":X:X:X:X:X:X:X, , :X:X:X:X:X:X:X:X:Xy + + + + + :X:X:X:X:X:X:X:X:X:X:X:X:X:X:X:X:X:X:X:X:X:X:X:X:X:X:X:X:X:X:X, , :X:X:X:X:X:X:X",
":X:X:X:X:X:X:X, :X:X:X:X:X:X:X:X:X:XG h + + + o + :X:X:X:X:X:X:X:X:X:X:X:X:X:X:X:X:X:X:X:X:X:X:X:X:X:X:X:X:X:X:X, :X:X:X:X:X:X:X",
":X:X:X:X:X:X, :X:X:X:X:X:X:X:X:X:XL T L n 3 + o + :X:X:X:X:X:X:X:X:X:X:X:X:X:X:X:X:X:X:X:X:X:X:X:X:X:X:X:X:X:X:X:X, :X:X:X:X:X:X",
":X:X:X:X:X, :X:X:X:X:X:X:X:X:X:X:XT T L T C r X + + :X:X:X:X:X:X:X:X:X:X:X:X:X:X:X:X:X:X:X:X:X:X:X:X:X:X:X:X:X:X:X:X, :X:X:X:X:X",
":X:X:X:X:X, :X:X:X:X:X:X:X:X:X:XL T L T L T F y + + :X:X:X:X:X:X:X:X:X:X:X:X:X:X:X:X:X:X:X:X:X:X:X:X:X:X:X:X:X:X:X:X, :X:X:X:X:X",
":X:X:X:X, :X:X:X:X:X:X:X:X:X:X:XL T T L T L T L j 1 o :X:X:X:X:X:X:X:X:X:X:X:X:X:X:X:X:X:X:X:X:X:X:X:X:X:X:X:X:X:X:X:X, :X:X:X:X",
":X:X:X, :X:X:X:X:X:X:X:X:X:X:X:Xd C L T L T L L T n 7 :X:X:X:X:X:X:X:X:X:X:X:X:X:X:X:X:X:X:X:X:X:X:X:X:X:X:X:X:X:X:X:X:X, :X:X:X",
":X:X:X, :X:X:X:X:X:X:X:X:X:X:X:Xo 1 s C L T T L T T C i :X:X:X:X:X:X:X:X:X:X:X:X:X:X:X:X:X:X:X:X:X:X:X:X:X:X:X:X:X:X:X:X, :X:X:X",
":X:X:X:X:X:X:X:X:X:X:X:X:X:X:X:X+ + o 1 s C P T L T T m.:X:X:X:X:X:X:X:X:X:X:X:X:X:X:X:X:X:X:X:X:X:X:X:X:X:X:X:X:X:X:X:X:X:X:X:X",
":X:X, :X:X:X:X:X:X:X:X:X:X:X:X:X:Xo o o X + y C G T n..X;X:X:X:X:X:X:X:X:X:X:X:X:X:X:X:X:X:X:X:X:X:X:X:X:X:X:X:X:X:X:X:X:X, :X:X",
":X:X, :X:X:X:X:X:X:X:X:X:X:X:X:X:Xy y t r r q r c +. X;X;X;X:X:X:X:X:X:X:X:X:X:X:X:X:X:X:X:X:X:X:X:X:X:X:X:X:X:X:X:X:X:X:X, :X:X",
":X, :X:X:X:X:X:X:X:X:X:X:X:X:X:X:XT L T P J J J J o.].;X=X=X=X:X:X:X:X:X:X:X:X:X:X:X:X:X:X:X:X:X:X:X:X:X:X:X:X:X:X:X:X:X:X:X, :X",
":X, :X:X:X:X:X:X:X:X:X:X:X:X:X:XT L T L L T L L L W N.OX;X=X;X:X:X:X:X:X:X:X:X:X:X:X:X:X:X:X:X:X:X:X:X:X:X:X:X:X:X:X:X:X:X:X, :X",
":X, :X:X:X:X:X:X:X:X:X:X:X:X:X:XL L L T L L T L T G $.G.$X;X;X=X:X:X:X:X:X:X:X:X:X:X:X:X:X:X:X:X:X:X:X:X:X:X:X:X:X:X:X:X:X:X, :X",
":X, :X:X:X:X:X:X:X:X:X:X:X:X:X:XJ F F J G F G G G J ^ s.K.$X;X=X:X:X:X:X:X:X:X:X:X:X:X:X:X:X:X:X:X:X:X:X:X:X:X:X:X:X:X:X:X:X, :X",
", :X:X:X:X:X:X:X:X:X:X:X:X:X:X:X8 7 7 7 7 7 7 8 7 7 n J.D.U.*X;X:X:X:X:X:X:X:X:X:X:X:X:X:X:XW.^.)   * - - - :X:X:X:X:X:X:X:X:X, ",
", :X:X:X:X:X:X:X:X:X:X:X:X:X:X:X:XO O O O O + + O X [ |.}.Y.^.*X:X:X:X:X:X:X:X:X:X:X:X:X:XJ.Y.^.U.' :X:X:X:X:X:X:X:X:X:X:X:X:X, ",
", :X:X:X:X:X:X:X:X:X:X:X:X:X:X:X:X+ + + + + + + O + M.$XOXOX'.}.:X:X:X:X:X:X:X:X:X:X:X:XW.a.e.5.:X:X:X:X:X:X:X:X:X:X:X:X:X:X:X, ",
", :X:X:X:X:X:X:X:X:X:X:X:X:X:X:X:X:X+ + + + + o O p Q.#X$XOXOXOXOX:X:X:X:X:X:X:X:X:X:XW.L.:X:X:X:X:X:X:X:X:X:X:X:X:X:X:X:X:X:X, ",
", :X:X:X:X:X:X:X:X:X:X:X:X:X:X:X:X:X:X+ + o o 3 f Q C.U.!._.}.OX#X@X:X:X:X:X:X:X:X:Xg.a.:X:X:X:X:X:X:X:X:X:X:X:X:X:X:X:X:X:X:X, ",
", :X:X:X:X:X:X:X:X:X:X:X:X:X:X:X:X:X:X:X1 r c F L T 7.c.z.B.S.J.W.).|.&X@X_.~.U.V.2.:X:X:X:X:X:X:X:X:X:X:X:X:X:X:X:X:X:X:X:X:X, ",
", :X:X:X:X:X:X:X:X:X:X:X:X:X:X:X:X:X:X:X:XL T L T P #.z.z.z.z.z.z.z.B.S.B.c.z.z.5.:X:X:X:X:X:X:X:X:X:X:X:X:X:X:X:X:X:X:X:X:X:X, ",
", :X:X:X:X:X:X:X:X:X:X:X:X:X:X:X:X:X:X:X:XL T T L I / f.z.z.z.z.z.z.8.d.z.z.z.0.:X:X:X:X:X:X:X:X:X:X:X:X:X:X:X:X:X:X:X:X:X:X:X, ",
", :X:X:X:X:X:X:X:X:X:X:X:X:X:X:X:X:X:X:X:XL T L T L ! q.z.z.z.z.z.3.2.z.z.z.d.:X:X:X:X:X:X:X:X:X:X:X:X:X:X:X:X:X:X:X:X:X:X:X:X, ",
", :X:X:X:X:X:X:X:X:X:X:X:X:X:X:X:X:X:X:X:XT L T L T I %.c.z.z.z.8.-.8.c.z.z.:X:X:X:X:X:X:X:X:X:X:X:X:X:X:X:X:X:X:X:X:X:X:X:X:X, ",
", :X:X:X:X:X:X:X:X:X:X:X:X:X:X:X:X:X:X:X:XT T L T T G o.z.z.z.0.:.;.a.z.z.:X:X:X:X:X:X:X:X:X:X:X:X:X:X:X:X:X:X:X:X:X:X:X:X:X:X, ",
", :X:X:X:X:X:X:X:X:X:X:X:X:X:X:X:X:X:X:X:Xn c m N C C W w.c.t.:.;.<.f.z.:X:X:X:X:X:X:X:X:X:X:X:X:X:X:X:X:X:X:X:X:X:X:X:X:X:X:X, ",
":X:X:X:X:X:X:X:X:X:X:X:X:X:X:X:X:X:X:X:X:X:X+ + + 1 1 v 6.d.:.;.;.5.z.:X:X:X:X:X:X:X:X:X:X:X:X:X:X:X:X:X:X:X:X:X:X:X:X:X:X:X:X:X",
":X, :X:X:X:X:X:X:X:X:X:X:X:X:X:X:X:X:X:X:X:X:X+ + + f B | ,.:.;.-.t.:X:X:X:X:X:X:X:X:X:X:X:X:X:X:X:X:X:X:X:X:X:X:X:X:X:X:X:X, :X",
":X, :X:X:X:X:X:X:X:X:X:X:X:X:X:X:X:X:X:X:X:X:X:X1 j Q ( O.:.;.;.:.d.:X:X:X:X:X:X:X:X:X:X:X:X:X:X:X:X:X:X:X:X:X:X:X:X:X:X:X:X, :X",
":X, :X:X:X:X:X:X:X:X:X:X:X:X:X:X:X:X:X:X:X:X:X:XN L ] O.:.-.;.-.:.:X:X:X:X:X:X:X:X:X:X:X:X:X:X:X:X:X:X:X:X:X:X:X:X:X:X:X:X:X, :X",
":X:X, :X:X:X:X:X:X:X:X:X:X:X:X:X:X:X:X:X:X:X:X:X:X~ } ;.-.-.| :X:X:X:X:X:X:X:X:X:X:X:X:X:X:X:X:X:X:X:X:X:X:X:X:X:X:X:X:X:X, :X:X",
":X:X, :X:X:X:X:X:X:X:X:X:X:X:X:X:X:X:X:X:X:X:X:X:X{ &.| :X:X:X:X:X:X:X:X:X:X:X:X:X:X:X:X:X:X:X:X:X:X:X:X:X:X:X:X:X:X:X:X:X, :X:X",
":X:X:X:X:X:X:X:X:X:X:X:X:X:X:X:X:X:X:X:X:X:X:X:X_ ` :X:X:X:X:X:X:X:X:X:X:X:X:X:X:X:X:X:X:X:X:X:X:X:X:X:X:X:X:X:X:X:X:X:X:X:X:X:X",
":X:X:X, :X:X:X:X:X:X:X:X:X:X:X:X:X:X:X:X:X:X:X:X:X:X:X:X:X:X:X:X:X:X:X:X:X:X:X:X:X:X:X:X:X:X:X:X:X:X:X:X:X:X:X:X:X:X:X:X, :X:X:X",
":X:X:X, :X:X:X:X:X:X:X:X:X:X:X:X:X:X:X:X:X- = :X:X:X:X:X:X:X:X:X:X:X:X:X:X:X:X:X:X:X:X:X:X:X:X:X:X:X:X:X:X:X:X:X:X:X:X:X, :X:X:X",
":X:X:X:X, :X:X:X:X:X:X:X:X:X:X:X:X:X:X- - :X:X:X:X:X:X:X:X:X:X, :X, , :X, :X, , , :X, , :X, , :X, , :X:X:X:X:X:X:X:X:X, :X:X:X:X",
":X:X:X:X:X, :X:X:X:X:X:X:X:X:X:X:X:X- :X:X:X:X:X:X:X:X:X:X:X:X:X:X, :X:X, , , :X, , : : , :X:X, , , :X, , :X:X:X:X:X, :X:X:X:X:X",
":X:X:X:X:X, :X:X:X:X:X:X:X:X:X:X:X:X:X:X:X:X:X:X:X:X:X:X:X:X:X, :X:X:X:X, :X:X:X:X:X, :X:X, , :X, , :X, :X:X:X:X:X:X, :X:X:X:X:X",
":X:X:X:X:X:X, :X:X:X:X:X:X:X& :X:X:X:X:X:X:X:X:X:X:X:X:X:X:X:X:X:X:X:X:X:X:X:X:X:X:X:X:X:X:X:X:X:X:X:X:X:X:X:X:X:X, :X:X:X:X:X:X",
":X:X:X:X:X:X:X, :X:X:X:X:X& :X:X:X:X:X:X:X:X:X:X:X:X:X:X:X:X:X:X:X:X:X:X:X:X:X:X:X:X:X:X:X:X:X:X:X:X:X:X:X:X:X:X, :X:X:X:X:X:X:X",
":X:X:X:X:X:X:X, :X:X:X:X:X:X:X:X:X:X:X:X:X:X:X:X:X:X:X:X:X:X:X:X:X:X:X:X:X:X:X:X:X:X:X:X:X:X:X:X:X:X:X:X:X:X:X:X, :X:X:X:X:X:X:X",
":X:X:X:X:X:X:X:X, :X:X:X:X:X:X:X:X:X:X:X:X:X:X:X:X:X:X:X:X:X:X:X:X:X:X:X:X:X:X:X:X:X:X:X:X:X:X:X:X:X:X:X:X:X:X, :X:X:X:X:X:X:X:X",
":X:X:X:X:X:X:X:X:X, :X:X:X:X:X:X:X:X:X:X:X:X:X:X:X:X:X:X:X:X:X:X:X:X:X:X:X:X:X:X:X:X:X:X:X:X:X:X:X:X:X:X:X:X, :X:X:X:X:X:X:X:X:X",
":X:X:X:X:X:X:X:X:X:X, :X:X:X:X:X:X:X:X:X:X:X:X:X:X:X:X:X:X:X:X:X:X:X:X:X:X:X:X:X:X:X:X:X:X:X:X:X:X:X:X:X:X, :X:X:X:X:X:X:X:X:X:X",
":X:X:X:X:X:X:X:X:X:X:X, , :X:X:X:X:X:X:X:X:X:X:X:X:X:X:X:X:X:X:X:X:X:X:X:X:X:X:X:X:X:X:X:X:X:X:X:X:X:X, , :X:X:X:X:X:X:X:X:X:X:X",
":X:X:X:X:X:X:X:X:X:X:X:X:X, :X:X:X:X:X:X:X:X:X:X:X:X:X:X:X:X:X:X:X:X:X:X:X:X:X:X:X:X:X:X:X:X:X:X:X:X, :X:X:X:X:X:X:X:X:X:X:X:X:X",
":X:X:X:X:X:X:X:X:X:X:X:X:X:X, , :X:X:X:X:X:X:X:X:X:X:X:X:X:X:X:X:X:X:X:X:X:X:X:X:X:X:X:X:X:X:X:X, , :X:X:X:X:X:X:X:X:X:X:X:X:X:X",
":X:X:X:X:X:X:X:X:X:X:X:X:X:X:X:X, :X:X:X:X:X:X:X:X:X:X:X:X:X:X:X:X:X:X:X:X:X:X:X:X:X:X:X:X:X:X, :X:X:X:X:X:X:X:X:X:X:X:X:X:X:X:X",
":X:X:X:X:X:X:X:X:X:X:X:X:X:X:X:X:X, , :X:X:X:X:X:X:X:X:X:X:X:X:X:X:X:X:X:X:X:X:X:X:X:X:X:X, , :X:X:X:X:X:X:X:X:X:X:X:X:X:X:X:X:X",
":X:X:X:X:X:X:X:X:X:X:X:X:X:X:X:X:X:X:X, , , :X:X:X:X:X:X:X:X:X:X:X:X:X:X:X:X:X:X:X:X, , , :X:X:X:X:X:X:X:X:X:X:X:X:X:X:X:X:X:X:X",
":X:X:X:X:X:X:X:X:X:X:X:X:X:X:X:X:X:X:X:X:X:X, , , :X:X:X:X:X:X:X:X:X:X:X:X:X:X, , , :X:X:X:X:X:X:X:X:X:X:X:X:X:X:X:X:X:X:X:X:X:X",
":X:X:X:X:X:X:X:X:X:X:X:X:X:X:X:X:X:X:X:X:X:X:X:X:X:X, , , , , , , , , , , , :X:X:X:X:X:X:X:X:X:X:X:X:X:X:X:X:X:X:X:X:X:X:X:X:X:X"
};
