/* XPM */
static char *cd64c2c391324fe6caf78657726834b0[] = {
/* columns rows colors chars-per-pixel */
"32 32 91 1 ",
"  c #4C677B",
". c #4D677C",
"X c #4D687C",
"o c #4D687D",
"O c #4E697E",
"+ c #1C75BC",
"@ c #4F6A80",
"# c #4F6C82",
"$ c #516D83",
"% c #516E84",
"& c #536F86",
"* c #537086",
"= c #537087",
"- c #5A7386",
"; c #547189",
": c #547289",
"> c #56748C",
", c #58778F",
"< c #597891",
"1 c #5B7B95",
"2 c #5C7C96",
"3 c #5E7D96",
"4 c #688094",
"5 c #61839E",
"6 c #6284A0",
"7 c #6385A1",
"8 c #6385A2",
"9 c #6386A2",
"0 c #668AA7",
"q c #678AA7",
"w c #6B8AA3",
"e c #678BA8",
"r c #688BA9",
"t c #688CAA",
"y c #688DAB",
"u c #698DAB",
"i c #698DAC",
"p c #698EAC",
"a c #6A8EAC",
"s c #728FA8",
"d c #7291AC",
"f c #7694AD",
"g c #7695AF",
"h c #AC9E99",
"j c #8794A1",
"k c #8194A6",
"l c #9B9FA3",
"z c #879EB2",
"x c #9BA9B6",
"c c #A0A1A4",
"v c #A2A3A5",
"b c #A4A5A7",
"n c #A6A7A8",
"m c #A4A7AC",
"M c #A7A8AA",
"N c #A9AAAC",
"B c #AAABAD",
"V c #AEAFB1",
"C c #A3AFB9",
"Z c #A1AEBA",
"A c #B1B1B3",
"S c #B2B3B5",
"D c #B1B6BA",
"F c #B7B8BA",
"G c #B9BABC",
"H c #BABABC",
"J c #BABBBD",
"K c #BBBBBD",
"L c #BBBCBE",
"P c #B6BDC3",
"I c #BDBEC0",
"U c #C0C1C2",
"Y c #C5C5C5",
"T c #CECECF",
"R c #CBD0D4",
"E c #D1D1D2",
"W c #D4D4D5",
"Q c #D6D7D8",
"! c #D7DBDF",
"~ c #D9D9DA",
"^ c #DDDEDE",
"/ c #CDD7E0",
"( c #E4E4E4",
") c gray90",
"_ c #E7E7E7",
"` c gray91",
"' c #EBEAEA",
"] c #F4F4F4",
"[ c #F5F5F4",
"{ c gray96",
"} c None",
/* pixels */
"}}}}}}}}}}}}}}}}}}}}}}}}}}}}}}}}",
"}}}}}}}}}}}}}}}}}}}}}}}}}}}}}}}}",
"}}}}}}}}}}}}}}}}}}}}}}}}}}}}}}}}",
"}}}}}}}}}}}}}}}}}}}}}}}}}}}}}}}}",
"}}}}}}}}}}oo}}}}}}}}}}}}}}}}}}}}",
"}}}}}}}}}%oo}}}}}}}}}}}}}}}}}}}}",
"}}}}}}}}}9;o}}}}}}}}}}}}}}}}}}}}",
"}}}}}}}}at0<o}}}}}}}}}}}}}}}}}}}",
"}}}}}}}}6tat1}}}}}}}}}}}}}}}}}}}",
"}}}}}}}}@>5trg}}}}}}}}}}}}}}}}}}",
"}}}}}}}}**;1d/{}}}}}}}}}}}}}}}}}",
"}}}}}}}}tre0g!{{}}}}}}}}}}}}}}}}",
"}}}}}}}}e0qqqZ){}}}}}}}}}}}}}}}}",
"}}}}}}}}%%%$%C~`}}}}}}}Eh}}}}}}}",
"}}}}}}}}}o..-R'`}}}}}}Y}}}}}}}}}",
"}}}}}}}}}}%<wPTQ^))WH}}}}}}}}}}}",
"}}}}}}}}}}tttxHLLIUH}}}}}}}}}}}}",
"}}}}}}}}}}tttzLHVSL}}}}}}}}}}}}}",
"}}}}}}}}}}}99dDAMF}}}}}}}}}}}}}}",
"}}}}}}}}}}}o$4mMB}}}}}}}}}}}}}}}",
"}}}}}}}}}}}}1jbbN}}}}}}}}}}}}}}}",
"}}}}}}}}}}}}klc}}}}}}}}}}}}}}}}}",
"}}}}}}}}}}}}}}}}}}}}}}}}}}}}}}}}",
"}}}}}}}}}}}}}}}}}}}}}}}}}}}}}}}}",
"}}}}}}}}}}}}}}}}}}+}}}+}}+}}}}}}",
"}}}}}}}}}}}}}}}}}}}}}}}}}}}}}}}}",
"}}}}}}}}}}}}}}}}}}}}}}}}}}}}}}}}",
"}}}}}}}}}}}}}}}}}}}}}}}}}}}}}}}}",
"}}}}}}}}}}}}}}}}}}}}}}}}}}}}}}}}",
"}}}}}}}}}}}}}}}}}}}}}}}}}}}}}}}}",
"}}}}}}}}}}}}}}}}}}}}}}}}}}}}}}}}",
"}}}}}}}}}}}}}}}}}}}}}}}}}}}}}}}}"
};
