/* XPM */
static char *_6f869a5fbb04fd3b717e0752ded0e67[] = {
/* columns rows colors chars-per-pixel */
"16 16 28 1 ",
"  c #4D687D",
". c #506D84",
"X c #597891",
"o c #5A7A94",
"O c #5B7C96",
"+ c #5D7D97",
"@ c #5E7E98",
"# c #60829E",
"$ c #6A859C",
"% c #6486A3",
"& c #6689A6",
"* c #6B8AA3",
"= c #668AA8",
"- c #808F9D",
"; c #8A9EAE",
": c #809AB0",
"> c #90A1AF",
", c #A1A2A5",
"< c #A6AAAF",
"1 c #AEAFB1",
"2 c #B8BABD",
"3 c #BABBBD",
"4 c #9FB3C4",
"5 c #BDBEC0",
"6 c #DADADB",
"7 c #E4E5E5",
"8 c #F1F1F1",
"9 c None",
/* pixels */
"9999999999999999",
"9999999999999999",
"99999 9999999999",
"9999&X9999999999",
"9999+%*999999999",
"9999@#4899999999",
"9999+o;799999999",
"99999.>699999999",
"99999**335999999",
"99999#*<19999999",
"999999-,99999999",
"9999999999999999",
"9999999999999999",
"9999999999999999",
"9999999999999999",
"9999999999999999"
};
